{
    "asset" : {
        "generator" : "Khronos glTF Blender I/O v1.5.17",
        "version" : "2.0"
    },
    "scene" : 0,
    "scenes" : [
        {
            "name" : "Scene",
            "nodes" : [
                0,
                1,
                2,
                3,
                4
            ]
        }
    ],
    "nodes" : [
        {
            "mesh" : 0,
            "name" : "Plane"
        },
        {
            "mesh" : 1,
            "name" : "Cube",
            "scale" : [
                0.6042336225509644,
                1.0305856466293335,
                0.591661274433136
            ],
            "translation" : [
                -0.6705020666122437,
                3.4261770248413086,
                -0.7678927779197693
            ]
        },
        {
            "mesh" : 2,
            "name" : "Cube.001",
            "rotation" : [
                -0.9659975171089172,
                0.2274305671453476,
                -0.027639063075184822,
                0.11983434110879898
            ],
            "scale" : [
                0.4931027293205261,
                1.465024471282959,
                0.8410734534263611
            ],
            "translation" : [
                -0.06603085249662399,
                1.8669352531433105,
                0.42197561264038086
            ]
        },
        {
            "mesh" : 3,
            "name" : "Cube.002",
            "rotation" : [
                -0.38398221135139465,
                0.20993465185165405,
                0.3656604290008545,
                0.8214484453201294
            ],
            "scale" : [
                1.1180529594421387,
                1.9069600105285645,
                1.0947895050048828
            ],
            "translation" : [
                -1.2307672500610352,
                4.540497779846191,
                0.5302356481552124
            ]
        },
        {
            "mesh" : 4,
            "name" : "Cube.003",
            "rotation" : [
                -0.8588358759880066,
                0.05346560478210449,
                0.17986558377742767,
                0.4766455590724945
            ],
            "scale" : [
                1.1180529594421387,
                1.9069600105285645,
                1.0947895050048828
            ],
            "translation" : [
                0.12643253803253174,
                3.9221558570861816,
                -0.6309968829154968
            ]
        }
    ],
    "materials" : [
        {
            "doubleSided" : true,
            "name" : "tree",
            "pbrMetallicRoughness" : {
                "baseColorFactor" : [
                    0.0043277256190776825,
                    0,
                    0.014669490978121758,
                    1
                ],
                "metallicFactor" : 0,
                "roughnessFactor" : 0.5
            }
        },
        {
            "doubleSided" : true,
            "name" : "tree-top",
            "pbrMetallicRoughness" : {
                "baseColorFactor" : [
                    0.022044312208890915,
                    0,
                    0.06371541321277618,
                    1
                ],
                "metallicFactor" : 0,
                "roughnessFactor" : 0.5
            }
        }
    ],
    "meshes" : [
        {
            "name" : "Plane",
            "primitives" : [
                {
                    "attributes" : {
                        "POSITION" : 0,
                        "NORMAL" : 1
                    },
                    "indices" : 2,
                    "material" : 0
                }
            ]
        },
        {
            "name" : "Cube",
            "primitives" : [
                {
                    "attributes" : {
                        "POSITION" : 3,
                        "NORMAL" : 4,
                        "TEXCOORD_0" : 5
                    },
                    "indices" : 6,
                    "material" : 1
                }
            ]
        },
        {
            "name" : "Cube.001",
            "primitives" : [
                {
                    "attributes" : {
                        "POSITION" : 7,
                        "NORMAL" : 8,
                        "TEXCOORD_0" : 9
                    },
                    "indices" : 10,
                    "material" : 1
                }
            ]
        },
        {
            "name" : "Cube.002",
            "primitives" : [
                {
                    "attributes" : {
                        "POSITION" : 11,
                        "NORMAL" : 12,
                        "TEXCOORD_0" : 13
                    },
                    "indices" : 6,
                    "material" : 1
                }
            ]
        },
        {
            "name" : "Cube.003",
            "primitives" : [
                {
                    "attributes" : {
                        "POSITION" : 14,
                        "NORMAL" : 15,
                        "TEXCOORD_0" : 16
                    },
                    "indices" : 6,
                    "material" : 1
                }
            ]
        }
    ],
    "accessors" : [
        {
            "bufferView" : 0,
            "componentType" : 5126,
            "count" : 294,
            "max" : [
                0.48365285992622375,
                4.249477386474609,
                0.7454507946968079
            ],
            "min" : [
                -0.8613881468772888,
                0.028928017243742943,
                -0.7630157470703125
            ],
            "type" : "VEC3"
        },
        {
            "bufferView" : 1,
            "componentType" : 5126,
            "count" : 294,
            "type" : "VEC3"
        },
        {
            "bufferView" : 2,
            "componentType" : 5123,
            "count" : 330,
            "type" : "SCALAR"
        },
        {
            "bufferView" : 3,
            "componentType" : 5126,
            "count" : 48,
            "max" : [
                0.6055657267570496,
                0.0018868409097194672,
                0.45588070154190063
            ],
            "min" : [
                -0.4393218457698822,
                -0.8801161050796509,
                -0.5801512598991394
            ],
            "type" : "VEC3"
        },
        {
            "bufferView" : 4,
            "componentType" : 5126,
            "count" : 48,
            "type" : "VEC3"
        },
        {
            "bufferView" : 5,
            "componentType" : 5126,
            "count" : 48,
            "type" : "VEC2"
        },
        {
            "bufferView" : 6,
            "componentType" : 5123,
            "count" : 48,
            "type" : "SCALAR"
        },
        {
            "bufferView" : 7,
            "componentType" : 5126,
            "count" : 48,
            "max" : [
                0.576312243938446,
                -0.02008882910013199,
                0.4782637655735016
            ],
            "min" : [
                -0.3875215947628021,
                -0.8690521121025085,
                -0.5517022609710693
            ],
            "type" : "VEC3"
        },
        {
            "bufferView" : 8,
            "componentType" : 5126,
            "count" : 48,
            "type" : "VEC3"
        },
        {
            "bufferView" : 9,
            "componentType" : 5126,
            "count" : 48,
            "type" : "VEC2"
        },
        {
            "bufferView" : 10,
            "componentType" : 5123,
            "count" : 48,
            "type" : "SCALAR"
        },
        {
            "bufferView" : 11,
            "componentType" : 5126,
            "count" : 48,
            "max" : [
                0.6055657267570496,
                0.0018868409097194672,
                0.45588070154190063
            ],
            "min" : [
                -0.4393218457698822,
                -0.8801161050796509,
                -0.5801512598991394
            ],
            "type" : "VEC3"
        },
        {
            "bufferView" : 12,
            "componentType" : 5126,
            "count" : 48,
            "type" : "VEC3"
        },
        {
            "bufferView" : 13,
            "componentType" : 5126,
            "count" : 48,
            "type" : "VEC2"
        },
        {
            "bufferView" : 14,
            "componentType" : 5126,
            "count" : 48,
            "max" : [
                0.6055657267570496,
                0.0018868409097194672,
                0.45588070154190063
            ],
            "min" : [
                -0.4393218457698822,
                -0.8801161050796509,
                -0.5801512598991394
            ],
            "type" : "VEC3"
        },
        {
            "bufferView" : 15,
            "componentType" : 5126,
            "count" : 48,
            "type" : "VEC3"
        },
        {
            "bufferView" : 16,
            "componentType" : 5126,
            "count" : 48,
            "type" : "VEC2"
        }
    ],
    "bufferViews" : [
        {
            "buffer" : 0,
            "byteLength" : 3528,
            "byteOffset" : 0
        },
        {
            "buffer" : 0,
            "byteLength" : 3528,
            "byteOffset" : 3528
        },
        {
            "buffer" : 0,
            "byteLength" : 660,
            "byteOffset" : 7056
        },
        {
            "buffer" : 0,
            "byteLength" : 576,
            "byteOffset" : 7716
        },
        {
            "buffer" : 0,
            "byteLength" : 576,
            "byteOffset" : 8292
        },
        {
            "buffer" : 0,
            "byteLength" : 384,
            "byteOffset" : 8868
        },
        {
            "buffer" : 0,
            "byteLength" : 96,
            "byteOffset" : 9252
        },
        {
            "buffer" : 0,
            "byteLength" : 576,
            "byteOffset" : 9348
        },
        {
            "buffer" : 0,
            "byteLength" : 576,
            "byteOffset" : 9924
        },
        {
            "buffer" : 0,
            "byteLength" : 384,
            "byteOffset" : 10500
        },
        {
            "buffer" : 0,
            "byteLength" : 96,
            "byteOffset" : 10884
        },
        {
            "buffer" : 0,
            "byteLength" : 576,
            "byteOffset" : 10980
        },
        {
            "buffer" : 0,
            "byteLength" : 576,
            "byteOffset" : 11556
        },
        {
            "buffer" : 0,
            "byteLength" : 384,
            "byteOffset" : 12132
        },
        {
            "buffer" : 0,
            "byteLength" : 576,
            "byteOffset" : 12516
        },
        {
            "buffer" : 0,
            "byteLength" : 576,
            "byteOffset" : 13092
        },
        {
            "buffer" : 0,
            "byteLength" : 384,
            "byteOffset" : 13668
        }
    ],
    "buffers" : [
        {
            "byteLength" : 14052,
            "uri" : "data:application/octet-stream;base64,"
        }
    ]
}
