{
    "asset" : {
        "generator" : "Khronos glTF Blender I/O v1.5.17",
        "version" : "2.0"
    },
    "scene" : 0,
    "scenes" : [
        {
            "name" : "Scene",
            "nodes" : [
                1,
                3,
                5,
                7
            ]
        }
    ],
    "nodes" : [
        {
            "mesh" : 0,
            "name" : "leaves"
        },
        {
            "children" : [
                0
            ],
            "mesh" : 1,
            "name" : "tree"
        },
        {
            "mesh" : 2,
            "name" : "Plane"
        },
        {
            "children" : [
                2
            ],
            "name" : "main",
            "scale" : [
                0.27542686462402344,
                0.27542686462402344,
                0.27542686462402344
            ],
            "translation" : [
                0.8394681811332703,
                3.2936410903930664,
                -0.303422749042511
            ]
        },
        {
            "mesh" : 2,
            "name" : "Plane"
        },
        {
            "children" : [
                4
            ],
            "name" : "main.001",
            "rotation" : [
                -0.3129007816314697,
                0.06734541803598404,
                0.19934237003326416,
                0.9261860251426697
            ],
            "scale" : [
                0.27542686462402344,
                0.27542686462402344,
                0.27542686462402344
            ],
            "translation" : [
                0.44412729144096375,
                3.7815988063812256,
                1.9426958560943604
            ]
        },
        {
            "mesh" : 2,
            "name" : "Plane"
        },
        {
            "children" : [
                6
            ],
            "name" : "main.002",
            "rotation" : [
                0.3220292627811432,
                0,
                0,
                0.9467297196388245
            ],
            "scale" : [
                0.27542686462402344,
                0.27542686462402344,
                0.27542686462402344
            ],
            "translation" : [
                -0.005541026592254639,
                5.0291900634765625,
                -1.9531370401382446
            ]
        }
    ],
    "materials" : [
        {
            "doubleSided" : true,
            "emissiveFactor" : [
                0,
                1,
                1
            ],
            "name" : "Material.001",
            "pbrMetallicRoughness" : {
                "baseColorFactor" : [
                    0,
                    0.8000000715255737,
                    0.44386810064315796,
                    1
                ],
                "metallicFactor" : 0,
                "roughnessFactor" : 0.5
            }
        },
        {
            "doubleSided" : true,
            "name" : "Material.002",
            "pbrMetallicRoughness" : {
                "baseColorFactor" : [
                    0.009750631637871265,
                    0,
                    0.02909943088889122,
                    1
                ],
                "metallicFactor" : 0,
                "roughnessFactor" : 0.5
            }
        }
    ],
    "meshes" : [
        {
            "name" : "leaves",
            "primitives" : [
                {
                    "attributes" : {
                        "POSITION" : 0,
                        "NORMAL" : 1,
                        "TEXCOORD_0" : 2
                    },
                    "indices" : 3,
                    "material" : 0
                }
            ]
        },
        {
            "name" : "tree",
            "primitives" : [
                {
                    "attributes" : {
                        "POSITION" : 4,
                        "NORMAL" : 5,
                        "TEXCOORD_0" : 6
                    },
                    "indices" : 7,
                    "material" : 1
                }
            ]
        },
        {
            "name" : "Plane.001",
            "primitives" : [
                {
                    "attributes" : {
                        "POSITION" : 8,
                        "NORMAL" : 9,
                        "TEXCOORD_0" : 10
                    },
                    "indices" : 11,
                    "material" : 0
                }
            ]
        }
    ],
    "accessors" : [
        {
            "bufferView" : 0,
            "componentType" : 5126,
            "count" : 5520,
            "max" : [
                3.3789162635803223,
                8.027009963989258,
                3.8413772583007812
            ],
            "min" : [
                -2.123417615890503,
                2.5595016479492188,
                -3.407825469970703
            ],
            "type" : "VEC3"
        },
        {
            "bufferView" : 1,
            "componentType" : 5126,
            "count" : 5520,
            "type" : "VEC3"
        },
        {
            "bufferView" : 2,
            "componentType" : 5126,
            "count" : 5520,
            "type" : "VEC2"
        },
        {
            "bufferView" : 3,
            "componentType" : 5123,
            "count" : 8280,
            "type" : "SCALAR"
        },
        {
            "bufferView" : 4,
            "componentType" : 5126,
            "count" : 2399,
            "max" : [
                3.2313742637634277,
                7.918937683105469,
                3.6939280033111572
            ],
            "min" : [
                -2.002317190170288,
                -0.0005801421939395368,
                -3.2647318840026855
            ],
            "type" : "VEC3"
        },
        {
            "bufferView" : 5,
            "componentType" : 5126,
            "count" : 2399,
            "type" : "VEC3"
        },
        {
            "bufferView" : 6,
            "componentType" : 5126,
            "count" : 2399,
            "type" : "VEC2"
        },
        {
            "bufferView" : 7,
            "componentType" : 5123,
            "count" : 8088,
            "type" : "SCALAR"
        },
        {
            "bufferView" : 8,
            "componentType" : 5126,
            "count" : 48,
            "max" : [
                1.1478875875473022,
                0.21806302666664124,
                1.1880998611450195
            ],
            "min" : [
                -1.1478875875473022,
                0,
                -1.1880998611450195
            ],
            "type" : "VEC3"
        },
        {
            "bufferView" : 9,
            "componentType" : 5126,
            "count" : 48,
            "type" : "VEC3"
        },
        {
            "bufferView" : 10,
            "componentType" : 5126,
            "count" : 48,
            "type" : "VEC2"
        },
        {
            "bufferView" : 11,
            "componentType" : 5123,
            "count" : 72,
            "type" : "SCALAR"
        }
    ],
    "bufferViews" : [
        {
            "buffer" : 0,
            "byteLength" : 66240,
            "byteOffset" : 0
        },
        {
            "buffer" : 0,
            "byteLength" : 66240,
            "byteOffset" : 66240
        },
        {
            "buffer" : 0,
            "byteLength" : 44160,
            "byteOffset" : 132480
        },
        {
            "buffer" : 0,
            "byteLength" : 16560,
            "byteOffset" : 176640
        },
        {
            "buffer" : 0,
            "byteLength" : 28788,
            "byteOffset" : 193200
        },
        {
            "buffer" : 0,
            "byteLength" : 28788,
            "byteOffset" : 221988
        },
        {
            "buffer" : 0,
            "byteLength" : 19192,
            "byteOffset" : 250776
        },
        {
            "buffer" : 0,
            "byteLength" : 16176,
            "byteOffset" : 269968
        },
        {
            "buffer" : 0,
            "byteLength" : 576,
            "byteOffset" : 286144
        },
        {
            "buffer" : 0,
            "byteLength" : 576,
            "byteOffset" : 286720
        },
        {
            "buffer" : 0,
            "byteLength" : 384,
            "byteOffset" : 287296
        },
        {
            "buffer" : 0,
            "byteLength" : 144,
            "byteOffset" : 287680
        }
    ],
    "buffers" : [
        {
            "byteLength" : 287824,
            "uri" : "data:application/octet-stream;base64,"
        }
    ]
}
