{
	"asset":{
		"generator":"Khronos glTF Blender I/O v4.0.44",
		"version":"2.0"
	},
	"scene":0,
	"scenes":[
		{
			"name":"Scene",
			"nodes":[
				0
			]
		}
	],
	"nodes":[
		{
			"mesh":0,
			"name":"PineTree_2_Cylinder.024",
			"rotation":[
				0.7071068286895752,
				0,
				0,
				0.7071068286895752
			],
			"scale":[
				0.009999999776482582,
				0.009999999776482582,
				0.009999999776482582
			]
		}
	],
	"materials":[
		{
			"doubleSided":true,
			"name":"Wood.021",
			"pbrMetallicRoughness":{
				"baseColorFactor":[
					0.12234099954366684,
					0.05628800019621849,
					0.04760900139808655,
					1
				],
				"metallicFactor":0,
				"roughnessFactor":0.6900347471237183
			}
		},
		{
			"doubleSided":true,
			"name":"Green.034",
			"pbrMetallicRoughness":{
				"baseColorFactor":[
					0.06995400041341782,
					0.12185700237751007,
					0.047887999564409256,
					1
				],
				"metallicFactor":0,
				"roughnessFactor":0.6900347471237183
			}
		}
	],
	"meshes":[
		{
			"name":"PineTree_2_Cylinder.024",
			"primitives":[
				{
					"attributes":{
						"POSITION":0,
						"NORMAL":1
					},
					"indices":2,
					"material":0
				},
				{
					"attributes":{
						"POSITION":3,
						"NORMAL":4
					},
					"indices":5,
					"material":1
				}
			]
		}
	],
	"accessors":[
		{
			"bufferView":0,
			"componentType":5126,
			"count":74,
			"max":[
				0.2570819854736328,
				0.18690800666809082,
				0.0164170004427433
			],
			"min":[
				-0.19870099425315857,
				-0.22581100463867188,
				-3.125828742980957
			],
			"type":"VEC3"
		},
		{
			"bufferView":1,
			"componentType":5126,
			"count":74,
			"type":"VEC3"
		},
		{
			"bufferView":2,
			"componentType":5123,
			"count":108,
			"type":"SCALAR"
		},
		{
			"bufferView":3,
			"componentType":5126,
			"count":714,
			"max":[
				0.8092817068099976,
				0.9395442605018616,
				-0.42489883303642273
			],
			"min":[
				-0.9722068905830383,
				-1.0071505308151245,
				-3.551558494567871
			],
			"type":"VEC3"
		},
		{
			"bufferView":4,
			"componentType":5126,
			"count":714,
			"type":"VEC3"
		},
		{
			"bufferView":5,
			"componentType":5123,
			"count":792,
			"type":"SCALAR"
		}
	],
	"bufferViews":[
		{
			"buffer":0,
			"byteLength":888,
			"byteOffset":0,
			"target":34962
		},
		{
			"buffer":0,
			"byteLength":888,
			"byteOffset":888,
			"target":34962
		},
		{
			"buffer":0,
			"byteLength":216,
			"byteOffset":1776,
			"target":34963
		},
		{
			"buffer":0,
			"byteLength":8568,
			"byteOffset":1992,
			"target":34962
		},
		{
			"buffer":0,
			"byteLength":8568,
			"byteOffset":10560,
			"target":34962
		},
		{
			"buffer":0,
			"byteLength":1584,
			"byteOffset":19128,
			"target":34963
		}
	],
	"buffers":[
		{
			"byteLength":20712,
			"uri":"pine-tree-2.bin"
		}
	]
}
