{
	"asset":{
		"generator":"Khronos glTF Blender I/O v4.0.44",
		"version":"2.0"
	},
	"scene":0,
	"scenes":[
		{
			"name":"Scene",
			"nodes":[
				0
			]
		}
	],
	"nodes":[
		{
			"mesh":0,
			"name":"PineTree_Snow_3_Cylinder.078",
			"rotation":[
				0.7071068286895752,
				0,
				0,
				0.7071068286895752
			],
			"scale":[
				0.009999999776482582,
				0.009999999776482582,
				0.009999999776482582
			]
		}
	],
	"materials":[
		{
			"doubleSided":true,
			"name":"Wood.027",
			"pbrMetallicRoughness":{
				"baseColorFactor":[
					0.12234099954366684,
					0.05628800019621849,
					0.04760900139808655,
					1
				],
				"metallicFactor":0,
				"roughnessFactor":0.6900347471237183
			}
		},
		{
			"doubleSided":true,
			"name":"Green.040",
			"pbrMetallicRoughness":{
				"baseColorFactor":[
					0.06995400041341782,
					0.12185700237751007,
					0.047887999564409256,
					1
				],
				"metallicFactor":0,
				"roughnessFactor":0.6900347471237183
			}
		},
		{
			"doubleSided":true,
			"name":"Snow.024",
			"pbrMetallicRoughness":{
				"baseColorFactor":[
					0.40230900049209595,
					0.36062899231910706,
					0.42169201374053955,
					1
				],
				"metallicFactor":0,
				"roughnessFactor":0.6900347471237183
			}
		}
	],
	"meshes":[
		{
			"name":"PineTree_Snow_3_Cylinder.078",
			"primitives":[
				{
					"attributes":{
						"POSITION":0,
						"NORMAL":1
					},
					"indices":2,
					"material":0
				},
				{
					"attributes":{
						"POSITION":3,
						"NORMAL":4
					},
					"indices":5,
					"material":1
				},
				{
					"attributes":{
						"POSITION":6,
						"NORMAL":7
					},
					"indices":8,
					"material":2
				}
			]
		}
	],
	"accessors":[
		{
			"bufferView":0,
			"componentType":5126,
			"count":88,
			"max":[
				0.22107583284378052,
				0.284823477268219,
				-0.0008370000286959112
			],
			"min":[
				-0.19870099425315857,
				-0.4598188102245331,
				-3.0356605052948
			],
			"type":"VEC3"
		},
		{
			"bufferView":1,
			"componentType":5126,
			"count":88,
			"type":"VEC3"
		},
		{
			"bufferView":2,
			"componentType":5123,
			"count":114,
			"type":"SCALAR"
		},
		{
			"bufferView":3,
			"componentType":5126,
			"count":656,
			"max":[
				1.097680687904358,
				1.0099561214447021,
				-0.21934446692466736
			],
			"min":[
				-1.0734504461288452,
				-0.9340248107910156,
				-3.2804532051086426
			],
			"type":"VEC3"
		},
		{
			"bufferView":4,
			"componentType":5126,
			"count":656,
			"type":"VEC3"
		},
		{
			"bufferView":5,
			"componentType":5123,
			"count":690,
			"type":"SCALAR"
		},
		{
			"bufferView":6,
			"componentType":5126,
			"count":300,
			"max":[
				1.097680687904358,
				0.9764349460601807,
				-0.21934446692466736
			],
			"min":[
				-1.0734504461288452,
				-0.9340248107910156,
				-3.3139169216156006
			],
			"type":"VEC3"
		},
		{
			"bufferView":7,
			"componentType":5126,
			"count":300,
			"type":"VEC3"
		},
		{
			"bufferView":8,
			"componentType":5123,
			"count":324,
			"type":"SCALAR"
		}
	],
	"bufferViews":[
		{
			"buffer":0,
			"byteLength":1056,
			"byteOffset":0,
			"target":34962
		},
		{
			"buffer":0,
			"byteLength":1056,
			"byteOffset":1056,
			"target":34962
		},
		{
			"buffer":0,
			"byteLength":228,
			"byteOffset":2112,
			"target":34963
		},
		{
			"buffer":0,
			"byteLength":7872,
			"byteOffset":2340,
			"target":34962
		},
		{
			"buffer":0,
			"byteLength":7872,
			"byteOffset":10212,
			"target":34962
		},
		{
			"buffer":0,
			"byteLength":1380,
			"byteOffset":18084,
			"target":34963
		},
		{
			"buffer":0,
			"byteLength":3600,
			"byteOffset":19464,
			"target":34962
		},
		{
			"buffer":0,
			"byteLength":3600,
			"byteOffset":23064,
			"target":34962
		},
		{
			"buffer":0,
			"byteLength":648,
			"byteOffset":26664,
			"target":34963
		}
	],
	"buffers":[
		{
			"byteLength":27312,
			"uri":"pine-tree-show-3.bin"
		}
	]
}
