{
	"asset":{
		"generator":"Khronos glTF Blender I/O v4.0.44",
		"version":"2.0"
	},
	"scene":0,
	"scenes":[
		{
			"name":"Scene",
			"nodes":[
				0
			]
		}
	],
	"nodes":[
		{
			"mesh":0,
			"name":"PineTree_Snow_5_Cylinder.076",
			"rotation":[
				0.7071068286895752,
				0,
				0,
				0.7071068286895752
			],
			"scale":[
				0.009999999776482582,
				0.009999999776482582,
				0.009999999776482582
			]
		}
	],
	"materials":[
		{
			"doubleSided":true,
			"name":"Wood.029",
			"pbrMetallicRoughness":{
				"baseColorFactor":[
					0.12234099954366684,
					0.05628800019621849,
					0.04760900139808655,
					1
				],
				"metallicFactor":0,
				"roughnessFactor":0.6900347471237183
			}
		},
		{
			"doubleSided":true,
			"name":"Green.042",
			"pbrMetallicRoughness":{
				"baseColorFactor":[
					0.06995400041341782,
					0.12185700237751007,
					0.047887999564409256,
					1
				],
				"metallicFactor":0,
				"roughnessFactor":0.6900347471237183
			}
		},
		{
			"doubleSided":true,
			"name":"Snow.026",
			"pbrMetallicRoughness":{
				"baseColorFactor":[
					0.40230900049209595,
					0.36062899231910706,
					0.42169201374053955,
					1
				],
				"metallicFactor":0,
				"roughnessFactor":0.6900347471237183
			}
		}
	],
	"meshes":[
		{
			"name":"PineTree_Snow_5_Cylinder.076",
			"primitives":[
				{
					"attributes":{
						"POSITION":0,
						"NORMAL":1
					},
					"indices":2,
					"material":0
				},
				{
					"attributes":{
						"POSITION":3,
						"NORMAL":4
					},
					"indices":5,
					"material":1
				},
				{
					"attributes":{
						"POSITION":6,
						"NORMAL":7
					},
					"indices":8,
					"material":2
				}
			]
		}
	],
	"accessors":[
		{
			"bufferView":0,
			"componentType":5126,
			"count":68,
			"max":[
				0.16174964606761932,
				0.17396840453147888,
				0.0067170001566410065
			],
			"min":[
				-0.2182520031929016,
				-0.23432600498199463,
				-2.472653388977051
			],
			"type":"VEC3"
		},
		{
			"bufferView":1,
			"componentType":5126,
			"count":68,
			"type":"VEC3"
		},
		{
			"bufferView":2,
			"componentType":5123,
			"count":78,
			"type":"SCALAR"
		},
		{
			"bufferView":3,
			"componentType":5126,
			"count":304,
			"max":[
				0.7754526138305664,
				0.6275891065597534,
				-1.1103143692016602
			],
			"min":[
				-0.6574632525444031,
				-0.6928135752677917,
				-2.660454511642456
			],
			"type":"VEC3"
		},
		{
			"bufferView":4,
			"componentType":5126,
			"count":304,
			"type":"VEC3"
		},
		{
			"bufferView":5,
			"componentType":5123,
			"count":318,
			"type":"SCALAR"
		},
		{
			"bufferView":6,
			"componentType":5126,
			"count":176,
			"max":[
				0.7754526138305664,
				0.6275891065597534,
				-1.1103143692016602
			],
			"min":[
				-0.6574632525444031,
				-0.6928135752677917,
				-2.694830894470215
			],
			"type":"VEC3"
		},
		{
			"bufferView":7,
			"componentType":5126,
			"count":176,
			"type":"VEC3"
		},
		{
			"bufferView":8,
			"componentType":5123,
			"count":186,
			"type":"SCALAR"
		}
	],
	"bufferViews":[
		{
			"buffer":0,
			"byteLength":816,
			"byteOffset":0,
			"target":34962
		},
		{
			"buffer":0,
			"byteLength":816,
			"byteOffset":816,
			"target":34962
		},
		{
			"buffer":0,
			"byteLength":156,
			"byteOffset":1632,
			"target":34963
		},
		{
			"buffer":0,
			"byteLength":3648,
			"byteOffset":1788,
			"target":34962
		},
		{
			"buffer":0,
			"byteLength":3648,
			"byteOffset":5436,
			"target":34962
		},
		{
			"buffer":0,
			"byteLength":636,
			"byteOffset":9084,
			"target":34963
		},
		{
			"buffer":0,
			"byteLength":2112,
			"byteOffset":9720,
			"target":34962
		},
		{
			"buffer":0,
			"byteLength":2112,
			"byteOffset":11832,
			"target":34962
		},
		{
			"buffer":0,
			"byteLength":372,
			"byteOffset":13944,
			"target":34963
		}
	],
	"buffers":[
		{
			"byteLength":14316,
			"uri":"pine-tree-show-5.bin"
		}
	]
}
