{
	"asset":{
		"generator":"Khronos glTF Blender I/O v4.0.44",
		"version":"2.0"
	},
	"scene":0,
	"scenes":[
		{
			"name":"Scene",
			"nodes":[
				0
			]
		}
	],
	"nodes":[
		{
			"mesh":0,
			"name":"PineTree_1_Cylinder.018",
			"rotation":[
				0.7071068286895752,
				0,
				0,
				0.7071068286895752
			],
			"scale":[
				0.009999999776482582,
				0.009999999776482582,
				0.009999999776482582
			]
		}
	],
	"materials":[
		{
			"doubleSided":true,
			"name":"Wood.020",
			"pbrMetallicRoughness":{
				"baseColorFactor":[
					0.12234099954366684,
					0.05628800019621849,
					0.04760900139808655,
					1
				],
				"metallicFactor":0,
				"roughnessFactor":0.6900347471237183
			}
		},
		{
			"doubleSided":true,
			"name":"Green.033",
			"pbrMetallicRoughness":{
				"baseColorFactor":[
					0.06995400041341782,
					0.12185700237751007,
					0.047887999564409256,
					1
				],
				"metallicFactor":0,
				"roughnessFactor":0.6900347471237183
			}
		}
	],
	"meshes":[
		{
			"name":"PineTree_1_Cylinder.018",
			"primitives":[
				{
					"attributes":{
						"POSITION":0,
						"NORMAL":1
					},
					"indices":2,
					"material":0
				},
				{
					"attributes":{
						"POSITION":3,
						"NORMAL":4
					},
					"indices":5,
					"material":1
				}
			]
		}
	],
	"accessors":[
		{
			"bufferView":0,
			"componentType":5126,
			"count":58,
			"max":[
				0.2136194258928299,
				0.21113814413547516,
				0.01299699954688549
			],
			"min":[
				-0.2110140025615692,
				-0.21907174587249756,
				-2.4776008129119873
			],
			"type":"VEC3"
		},
		{
			"bufferView":1,
			"componentType":5126,
			"count":58,
			"type":"VEC3"
		},
		{
			"bufferView":2,
			"componentType":5123,
			"count":78,
			"type":"SCALAR"
		},
		{
			"bufferView":3,
			"componentType":5126,
			"count":664,
			"max":[
				1.0165514945983887,
				0.9888767004013062,
				-0.3396986722946167
			],
			"min":[
				-0.9346610903739929,
				-0.8249536752700806,
				-2.694831609725952
			],
			"type":"VEC3"
		},
		{
			"bufferView":4,
			"componentType":5126,
			"count":664,
			"type":"VEC3"
		},
		{
			"bufferView":5,
			"componentType":5123,
			"count":708,
			"type":"SCALAR"
		}
	],
	"bufferViews":[
		{
			"buffer":0,
			"byteLength":696,
			"byteOffset":0,
			"target":34962
		},
		{
			"buffer":0,
			"byteLength":696,
			"byteOffset":696,
			"target":34962
		},
		{
			"buffer":0,
			"byteLength":156,
			"byteOffset":1392,
			"target":34963
		},
		{
			"buffer":0,
			"byteLength":7968,
			"byteOffset":1548,
			"target":34962
		},
		{
			"buffer":0,
			"byteLength":7968,
			"byteOffset":9516,
			"target":34962
		},
		{
			"buffer":0,
			"byteLength":1416,
			"byteOffset":17484,
			"target":34963
		}
	],
	"buffers":[
		{
			"byteLength":18900,
			"uri":"pine-tree-1.bin"
		}
	]
}
