{
	"asset":{
		"generator":"Khronos glTF Blender I/O v4.0.44",
		"version":"2.0"
	},
	"scene":0,
	"scenes":[
		{
			"name":"Scene",
			"nodes":[
				0
			]
		}
	],
	"nodes":[
		{
			"mesh":0,
			"name":"PineTree_Snow_1_Cylinder.080",
			"rotation":[
				0.7071068286895752,
				0,
				0,
				0.7071068286895752
			],
			"scale":[
				0.009999999776482582,
				0.009999999776482582,
				0.009999999776482582
			]
		}
	],
	"materials":[
		{
			"doubleSided":true,
			"name":"Wood.025",
			"pbrMetallicRoughness":{
				"baseColorFactor":[
					0.12234099954366684,
					0.05628800019621849,
					0.04760900139808655,
					1
				],
				"metallicFactor":0,
				"roughnessFactor":0.6900347471237183
			}
		},
		{
			"doubleSided":true,
			"name":"Green.038",
			"pbrMetallicRoughness":{
				"baseColorFactor":[
					0.06995400041341782,
					0.12185700237751007,
					0.047887999564409256,
					1
				],
				"metallicFactor":0,
				"roughnessFactor":0.6900347471237183
			}
		},
		{
			"doubleSided":true,
			"name":"Snow.022",
			"pbrMetallicRoughness":{
				"baseColorFactor":[
					0.40230900049209595,
					0.36062899231910706,
					0.42169201374053955,
					1
				],
				"metallicFactor":0,
				"roughnessFactor":0.6900347471237183
			}
		}
	],
	"meshes":[
		{
			"name":"PineTree_Snow_1_Cylinder.080",
			"primitives":[
				{
					"attributes":{
						"POSITION":0,
						"NORMAL":1
					},
					"indices":2,
					"material":0
				},
				{
					"attributes":{
						"POSITION":3,
						"NORMAL":4
					},
					"indices":5,
					"material":1
				},
				{
					"attributes":{
						"POSITION":6,
						"NORMAL":7
					},
					"indices":8,
					"material":2
				}
			]
		}
	],
	"accessors":[
		{
			"bufferView":0,
			"componentType":5126,
			"count":62,
			"max":[
				0.2136194258928299,
				0.21113814413547516,
				0.01299699954688549
			],
			"min":[
				-0.2110140025615692,
				-0.24933399260044098,
				-2.4776008129119873
			],
			"type":"VEC3"
		},
		{
			"bufferView":1,
			"componentType":5126,
			"count":62,
			"type":"VEC3"
		},
		{
			"bufferView":2,
			"componentType":5123,
			"count":84,
			"type":"SCALAR"
		},
		{
			"bufferView":3,
			"componentType":5126,
			"count":441,
			"max":[
				1.0165514945983887,
				0.9888767004013062,
				-0.3396986722946167
			],
			"min":[
				-0.9346610903739929,
				-0.8249536752700806,
				-2.660452365875244
			],
			"type":"VEC3"
		},
		{
			"bufferView":4,
			"componentType":5126,
			"count":441,
			"type":"VEC3"
		},
		{
			"bufferView":5,
			"componentType":5123,
			"count":471,
			"type":"SCALAR"
		},
		{
			"bufferView":6,
			"componentType":5126,
			"count":255,
			"max":[
				1.0165514945983887,
				0.9888767004013062,
				-0.3396986722946167
			],
			"min":[
				-0.9346610903739929,
				-0.7882227897644043,
				-2.689281940460205
			],
			"type":"VEC3"
		},
		{
			"bufferView":7,
			"componentType":5126,
			"count":255,
			"type":"VEC3"
		},
		{
			"bufferView":8,
			"componentType":5123,
			"count":273,
			"type":"SCALAR"
		}
	],
	"bufferViews":[
		{
			"buffer":0,
			"byteLength":744,
			"byteOffset":0,
			"target":34962
		},
		{
			"buffer":0,
			"byteLength":744,
			"byteOffset":744,
			"target":34962
		},
		{
			"buffer":0,
			"byteLength":168,
			"byteOffset":1488,
			"target":34963
		},
		{
			"buffer":0,
			"byteLength":5292,
			"byteOffset":1656,
			"target":34962
		},
		{
			"buffer":0,
			"byteLength":5292,
			"byteOffset":6948,
			"target":34962
		},
		{
			"buffer":0,
			"byteLength":942,
			"byteOffset":12240,
			"target":34963
		},
		{
			"buffer":0,
			"byteLength":3060,
			"byteOffset":13184,
			"target":34962
		},
		{
			"buffer":0,
			"byteLength":3060,
			"byteOffset":16244,
			"target":34962
		},
		{
			"buffer":0,
			"byteLength":546,
			"byteOffset":19304,
			"target":34963
		}
	],
	"buffers":[
		{
			"byteLength":19852,
			"uri":"pine-tree-show-1.bin"
		}
	]
}
