{
	"asset":{
		"generator":"Khronos glTF Blender I/O v4.0.44",
		"version":"2.0"
	},
	"scene":0,
	"scenes":[
		{
			"name":"Scene",
			"nodes":[
				0
			]
		}
	],
	"nodes":[
		{
			"mesh":0,
			"name":"PineTree_Snow_2_Cylinder.079",
			"rotation":[
				0.7071068286895752,
				0,
				0,
				0.7071068286895752
			],
			"scale":[
				0.009999999776482582,
				0.009999999776482582,
				0.009999999776482582
			]
		}
	],
	"materials":[
		{
			"doubleSided":true,
			"name":"Wood.026",
			"pbrMetallicRoughness":{
				"baseColorFactor":[
					0.12234099954366684,
					0.05628800019621849,
					0.04760900139808655,
					1
				],
				"metallicFactor":0,
				"roughnessFactor":0.6900347471237183
			}
		},
		{
			"doubleSided":true,
			"name":"Green.039",
			"pbrMetallicRoughness":{
				"baseColorFactor":[
					0.06995400041341782,
					0.12185700237751007,
					0.047887999564409256,
					1
				],
				"metallicFactor":0,
				"roughnessFactor":0.6900347471237183
			}
		},
		{
			"doubleSided":true,
			"name":"Snow.023",
			"pbrMetallicRoughness":{
				"baseColorFactor":[
					0.40230900049209595,
					0.36062899231910706,
					0.42169201374053955,
					1
				],
				"metallicFactor":0,
				"roughnessFactor":0.6900347471237183
			}
		}
	],
	"meshes":[
		{
			"name":"PineTree_Snow_2_Cylinder.079",
			"primitives":[
				{
					"attributes":{
						"POSITION":0,
						"NORMAL":1
					},
					"indices":2,
					"material":0
				},
				{
					"attributes":{
						"POSITION":3,
						"NORMAL":4
					},
					"indices":5,
					"material":1
				},
				{
					"attributes":{
						"POSITION":6,
						"NORMAL":7
					},
					"indices":8,
					"material":2
				}
			]
		}
	],
	"accessors":[
		{
			"bufferView":0,
			"componentType":5126,
			"count":66,
			"max":[
				0.21537093818187714,
				0.21072164177894592,
				0.0164170004427433
			],
			"min":[
				-0.19870099425315857,
				-0.2069530040025711,
				-3.125828742980957
			],
			"type":"VEC3"
		},
		{
			"bufferView":1,
			"componentType":5126,
			"count":66,
			"type":"VEC3"
		},
		{
			"bufferView":2,
			"componentType":5123,
			"count":90,
			"type":"SCALAR"
		},
		{
			"bufferView":3,
			"componentType":5126,
			"count":391,
			"max":[
				0.8092817068099976,
				0.9395442605018616,
				-0.42489883303642273
			],
			"min":[
				-0.9857802987098694,
				-1.0071505308151245,
				-3.5037522315979004
			],
			"type":"VEC3"
		},
		{
			"bufferView":4,
			"componentType":5126,
			"count":391,
			"type":"VEC3"
		},
		{
			"bufferView":5,
			"componentType":5123,
			"count":411,
			"type":"SCALAR"
		},
		{
			"bufferView":6,
			"componentType":5126,
			"count":205,
			"max":[
				0.8092817068099976,
				0.9395442605018616,
				-0.42489883303642273
			],
			"min":[
				-0.9857802987098694,
				-1.0071505308151245,
				-3.5573642253875732
			],
			"type":"VEC3"
		},
		{
			"bufferView":7,
			"componentType":5126,
			"count":205,
			"type":"VEC3"
		},
		{
			"bufferView":8,
			"componentType":5123,
			"count":225,
			"type":"SCALAR"
		}
	],
	"bufferViews":[
		{
			"buffer":0,
			"byteLength":792,
			"byteOffset":0,
			"target":34962
		},
		{
			"buffer":0,
			"byteLength":792,
			"byteOffset":792,
			"target":34962
		},
		{
			"buffer":0,
			"byteLength":180,
			"byteOffset":1584,
			"target":34963
		},
		{
			"buffer":0,
			"byteLength":4692,
			"byteOffset":1764,
			"target":34962
		},
		{
			"buffer":0,
			"byteLength":4692,
			"byteOffset":6456,
			"target":34962
		},
		{
			"buffer":0,
			"byteLength":822,
			"byteOffset":11148,
			"target":34963
		},
		{
			"buffer":0,
			"byteLength":2460,
			"byteOffset":11972,
			"target":34962
		},
		{
			"buffer":0,
			"byteLength":2460,
			"byteOffset":14432,
			"target":34962
		},
		{
			"buffer":0,
			"byteLength":450,
			"byteOffset":16892,
			"target":34963
		}
	],
	"buffers":[
		{
			"byteLength":17344,
			"uri":"pine-tree-show-2.bin"
		}
	]
}
