{
	"asset":{
		"generator":"Khronos glTF Blender I/O v4.0.44",
		"version":"2.0"
	},
	"scene":0,
	"scenes":[
		{
			"name":"Scene",
			"nodes":[
				0
			]
		}
	],
	"nodes":[
		{
			"mesh":0,
			"name":"PineTree_Snow_4_Cylinder.077",
			"rotation":[
				0.7071068286895752,
				0,
				0,
				0.7071068286895752
			],
			"scale":[
				0.009999999776482582,
				0.009999999776482582,
				0.009999999776482582
			]
		}
	],
	"materials":[
		{
			"doubleSided":true,
			"name":"Wood.028",
			"pbrMetallicRoughness":{
				"baseColorFactor":[
					0.12234099954366684,
					0.05628800019621849,
					0.04760900139808655,
					1
				],
				"metallicFactor":0,
				"roughnessFactor":0.6900347471237183
			}
		},
		{
			"doubleSided":true,
			"name":"Green.041",
			"pbrMetallicRoughness":{
				"baseColorFactor":[
					0.06995400041341782,
					0.12185700237751007,
					0.047887999564409256,
					1
				],
				"metallicFactor":0,
				"roughnessFactor":0.6900347471237183
			}
		},
		{
			"doubleSided":true,
			"name":"Snow.025",
			"pbrMetallicRoughness":{
				"baseColorFactor":[
					0.40230900049209595,
					0.36062899231910706,
					0.42169201374053955,
					1
				],
				"metallicFactor":0,
				"roughnessFactor":0.6900347471237183
			}
		}
	],
	"meshes":[
		{
			"name":"PineTree_Snow_4_Cylinder.077",
			"primitives":[
				{
					"attributes":{
						"POSITION":0,
						"NORMAL":1
					},
					"indices":2,
					"material":0
				},
				{
					"attributes":{
						"POSITION":3,
						"NORMAL":4
					},
					"indices":5,
					"material":1
				},
				{
					"attributes":{
						"POSITION":6,
						"NORMAL":7
					},
					"indices":8,
					"material":2
				}
			]
		}
	],
	"accessors":[
		{
			"bufferView":0,
			"componentType":5126,
			"count":124,
			"max":[
				0.2570819854736328,
				0.2918477952480316,
				-0.0008370000286959112
			],
			"min":[
				-0.19870099425315857,
				-0.453088641166687,
				-3.10892915725708
			],
			"type":"VEC3"
		},
		{
			"bufferView":1,
			"componentType":5126,
			"count":124,
			"type":"VEC3"
		},
		{
			"bufferView":2,
			"componentType":5123,
			"count":180,
			"type":"SCALAR"
		},
		{
			"bufferView":3,
			"componentType":5126,
			"count":578,
			"max":[
				0.5219751596450806,
				0.43670329451560974,
				-1.541276454925537
			],
			"min":[
				-0.7203150391578674,
				-0.94233238697052,
				-3.3185698986053467
			],
			"type":"VEC3"
		},
		{
			"bufferView":4,
			"componentType":5126,
			"count":578,
			"type":"VEC3"
		},
		{
			"bufferView":5,
			"componentType":5123,
			"count":642,
			"type":"SCALAR"
		},
		{
			"bufferView":6,
			"componentType":5126,
			"count":288,
			"max":[
				0.5219751596450806,
				0.43670329451560974,
				-1.541276454925537
			],
			"min":[
				-0.7203150391578674,
				-0.94233238697052,
				-3.3455193042755127
			],
			"type":"VEC3"
		},
		{
			"bufferView":7,
			"componentType":5126,
			"count":288,
			"type":"VEC3"
		},
		{
			"bufferView":8,
			"componentType":5123,
			"count":330,
			"type":"SCALAR"
		}
	],
	"bufferViews":[
		{
			"buffer":0,
			"byteLength":1488,
			"byteOffset":0,
			"target":34962
		},
		{
			"buffer":0,
			"byteLength":1488,
			"byteOffset":1488,
			"target":34962
		},
		{
			"buffer":0,
			"byteLength":360,
			"byteOffset":2976,
			"target":34963
		},
		{
			"buffer":0,
			"byteLength":6936,
			"byteOffset":3336,
			"target":34962
		},
		{
			"buffer":0,
			"byteLength":6936,
			"byteOffset":10272,
			"target":34962
		},
		{
			"buffer":0,
			"byteLength":1284,
			"byteOffset":17208,
			"target":34963
		},
		{
			"buffer":0,
			"byteLength":3456,
			"byteOffset":18492,
			"target":34962
		},
		{
			"buffer":0,
			"byteLength":3456,
			"byteOffset":21948,
			"target":34962
		},
		{
			"buffer":0,
			"byteLength":660,
			"byteOffset":25404,
			"target":34963
		}
	],
	"buffers":[
		{
			"byteLength":26064,
			"uri":"pine-tree-show-4.bin"
		}
	]
}
