{
	"asset":{
		"generator":"Khronos glTF Blender I/O v4.0.44",
		"version":"2.0"
	},
	"scene":0,
	"scenes":[
		{
			"name":"Scene",
			"nodes":[
				0
			]
		}
	],
	"nodes":[
		{
			"mesh":0,
			"name":"PineTree_4_Cylinder.027",
			"rotation":[
				0.7071068286895752,
				0,
				0,
				0.7071068286895752
			],
			"scale":[
				0.009999999776482582,
				0.009999999776482582,
				0.009999999776482582
			]
		}
	],
	"materials":[
		{
			"doubleSided":true,
			"name":"Wood.023",
			"pbrMetallicRoughness":{
				"baseColorFactor":[
					0.12234099954366684,
					0.05628800019621849,
					0.04760900139808655,
					1
				],
				"metallicFactor":0,
				"roughnessFactor":0.6900347471237183
			}
		},
		{
			"doubleSided":true,
			"name":"Green.036",
			"pbrMetallicRoughness":{
				"baseColorFactor":[
					0.06995400041341782,
					0.12185700237751007,
					0.047887999564409256,
					1
				],
				"metallicFactor":0,
				"roughnessFactor":0.6900347471237183
			}
		}
	],
	"meshes":[
		{
			"name":"PineTree_4_Cylinder.027",
			"primitives":[
				{
					"attributes":{
						"POSITION":0,
						"NORMAL":1
					},
					"indices":2,
					"material":0
				},
				{
					"attributes":{
						"POSITION":3,
						"NORMAL":4
					},
					"indices":5,
					"material":1
				}
			]
		}
	],
	"accessors":[
		{
			"bufferView":0,
			"componentType":5126,
			"count":88,
			"max":[
				0.2210756540298462,
				0.2918477952480316,
				-0.0009480000007897615
			],
			"min":[
				-0.17486806213855743,
				-0.453088641166687,
				-3.110924482345581
			],
			"type":"VEC3"
		},
		{
			"bufferView":1,
			"componentType":5126,
			"count":88,
			"type":"VEC3"
		},
		{
			"bufferView":2,
			"componentType":5123,
			"count":114,
			"type":"SCALAR"
		},
		{
			"bufferView":3,
			"componentType":5126,
			"count":520,
			"max":[
				0.5277369022369385,
				0.4259590208530426,
				-1.5686770677566528
			],
			"min":[
				-0.7203094959259033,
				-0.9473139643669128,
				-3.3520328998565674
			],
			"type":"VEC3"
		},
		{
			"bufferView":4,
			"componentType":5126,
			"count":520,
			"type":"VEC3"
		},
		{
			"bufferView":5,
			"componentType":5123,
			"count":546,
			"type":"SCALAR"
		}
	],
	"bufferViews":[
		{
			"buffer":0,
			"byteLength":1056,
			"byteOffset":0,
			"target":34962
		},
		{
			"buffer":0,
			"byteLength":1056,
			"byteOffset":1056,
			"target":34962
		},
		{
			"buffer":0,
			"byteLength":228,
			"byteOffset":2112,
			"target":34963
		},
		{
			"buffer":0,
			"byteLength":6240,
			"byteOffset":2340,
			"target":34962
		},
		{
			"buffer":0,
			"byteLength":6240,
			"byteOffset":8580,
			"target":34962
		},
		{
			"buffer":0,
			"byteLength":1092,
			"byteOffset":14820,
			"target":34963
		}
	],
	"buffers":[
		{
			"byteLength":15912,
			"uri":"pine-tree-4.bin"
		}
	]
}
