{
	"asset":{
		"generator":"Khronos glTF Blender I/O v4.0.44",
		"version":"2.0"
	},
	"scene":0,
	"scenes":[
		{
			"name":"Scene",
			"nodes":[
				0
			]
		}
	],
	"nodes":[
		{
			"mesh":0,
			"name":"CommonTree_2_Cube.001",
			"rotation":[
				0.7071068286895752,
				0,
				0,
				0.7071068286895752
			],
			"scale":[
				0.009999999776482582,
				0.009999999776482582,
				0.009999999776482582
			]
		}
	],
	"materials":[
		{
			"doubleSided":true,
			"name":"Wood.053",
			"pbrMetallicRoughness":{
				"baseColorFactor":[
					0.12234099954366684,
					0.05628800019621849,
					0.04760900139808655,
					1
				],
				"metallicFactor":0,
				"roughnessFactor":0.6900347471237183
			}
		},
		{
			"doubleSided":true,
			"name":"Green.056",
			"pbrMetallicRoughness":{
				"baseColorFactor":[
					0.06995400041341782,
					0.12185700237751007,
					0.047887999564409256,
					1
				],
				"metallicFactor":0,
				"roughnessFactor":0.6900347471237183
			}
		}
	],
	"meshes":[
		{
			"name":"CommonTree_2_Cube.001",
			"primitives":[
				{
					"attributes":{
						"POSITION":0,
						"NORMAL":1
					},
					"indices":2,
					"material":0
				},
				{
					"attributes":{
						"POSITION":3,
						"NORMAL":4
					},
					"indices":5,
					"material":1
				}
			]
		}
	],
	"accessors":[
		{
			"bufferView":0,
			"componentType":5126,
			"count":592,
			"max":[
				0.6311285495758057,
				1.2572261095046997,
				0.04726943001151085
			],
			"min":[
				-0.6898374557495117,
				-0.5956419706344604,
				-2.940046548843384
			],
			"type":"VEC3"
		},
		{
			"bufferView":1,
			"componentType":5126,
			"count":592,
			"type":"VEC3"
		},
		{
			"bufferView":2,
			"componentType":5123,
			"count":636,
			"type":"SCALAR"
		},
		{
			"bufferView":3,
			"componentType":5126,
			"count":516,
			"max":[
				0.8458993434906006,
				1.5778206586837769,
				-1.3736730813980103
			],
			"min":[
				-0.8132722973823547,
				-0.9300545454025269,
				-3.0450823307037354
			],
			"type":"VEC3"
		},
		{
			"bufferView":4,
			"componentType":5126,
			"count":516,
			"type":"VEC3"
		},
		{
			"bufferView":5,
			"componentType":5123,
			"count":576,
			"type":"SCALAR"
		}
	],
	"bufferViews":[
		{
			"buffer":0,
			"byteLength":7104,
			"byteOffset":0,
			"target":34962
		},
		{
			"buffer":0,
			"byteLength":7104,
			"byteOffset":7104,
			"target":34962
		},
		{
			"buffer":0,
			"byteLength":1272,
			"byteOffset":14208,
			"target":34963
		},
		{
			"buffer":0,
			"byteLength":6192,
			"byteOffset":15480,
			"target":34962
		},
		{
			"buffer":0,
			"byteLength":6192,
			"byteOffset":21672,
			"target":34962
		},
		{
			"buffer":0,
			"byteLength":1152,
			"byteOffset":27864,
			"target":34963
		}
	],
	"buffers":[
		{
			"byteLength":29016,
			"uri":"tree-common-2.bin"
		}
	]
}
