{
	"asset":{
		"generator":"Khronos glTF Blender I/O v4.0.44",
		"version":"2.0"
	},
	"scene":0,
	"scenes":[
		{
			"name":"Scene",
			"nodes":[
				0
			]
		}
	],
	"nodes":[
		{
			"mesh":0,
			"name":"CommonTree_5_Cube.001",
			"rotation":[
				0.7071068286895752,
				0,
				0,
				0.7071068286895752
			],
			"scale":[
				0.009999999776482582,
				0.009999999776482582,
				0.009999999776482582
			]
		}
	],
	"materials":[
		{
			"doubleSided":true,
			"name":"Wood.056",
			"pbrMetallicRoughness":{
				"baseColorFactor":[
					0.12234099954366684,
					0.05628800019621849,
					0.04760900139808655,
					1
				],
				"metallicFactor":0,
				"roughnessFactor":0.6900347471237183
			}
		},
		{
			"doubleSided":true,
			"name":"Green.059",
			"pbrMetallicRoughness":{
				"baseColorFactor":[
					0.06995400041341782,
					0.12185700237751007,
					0.047887999564409256,
					1
				],
				"metallicFactor":0,
				"roughnessFactor":0.6900347471237183
			}
		}
	],
	"meshes":[
		{
			"name":"CommonTree_5_Cube.001",
			"primitives":[
				{
					"attributes":{
						"POSITION":0,
						"NORMAL":1
					},
					"indices":2,
					"material":0
				},
				{
					"attributes":{
						"POSITION":3,
						"NORMAL":4
					},
					"indices":5,
					"material":1
				}
			]
		}
	],
	"accessors":[
		{
			"bufferView":0,
			"componentType":5126,
			"count":334,
			"max":[
				0.25204959511756897,
				0.8856362700462341,
				0.034955766052007675
			],
			"min":[
				-0.5989205837249756,
				-0.32243049144744873,
				-2.2825021743774414
			],
			"type":"VEC3"
		},
		{
			"bufferView":1,
			"componentType":5126,
			"count":334,
			"type":"VEC3"
		},
		{
			"bufferView":2,
			"componentType":5123,
			"count":354,
			"type":"SCALAR"
		},
		{
			"bufferView":3,
			"componentType":5126,
			"count":368,
			"max":[
				0.45981404185295105,
				1.4102360010147095,
				-1.447737455368042
			],
			"min":[
				-0.8049303889274597,
				-0.8067804574966431,
				-2.4929707050323486
			],
			"type":"VEC3"
		},
		{
			"bufferView":4,
			"componentType":5126,
			"count":368,
			"type":"VEC3"
		},
		{
			"bufferView":5,
			"componentType":5123,
			"count":396,
			"type":"SCALAR"
		}
	],
	"bufferViews":[
		{
			"buffer":0,
			"byteLength":4008,
			"byteOffset":0,
			"target":34962
		},
		{
			"buffer":0,
			"byteLength":4008,
			"byteOffset":4008,
			"target":34962
		},
		{
			"buffer":0,
			"byteLength":708,
			"byteOffset":8016,
			"target":34963
		},
		{
			"buffer":0,
			"byteLength":4416,
			"byteOffset":8724,
			"target":34962
		},
		{
			"buffer":0,
			"byteLength":4416,
			"byteOffset":13140,
			"target":34962
		},
		{
			"buffer":0,
			"byteLength":792,
			"byteOffset":17556,
			"target":34963
		}
	],
	"buffers":[
		{
			"byteLength":18348,
			"uri":"tree-common-5.bin"
		}
	]
}
