{
	"asset":{
		"generator":"Khronos glTF Blender I/O v4.0.44",
		"version":"2.0"
	},
	"scene":0,
	"scenes":[
		{
			"name":"Scene",
			"nodes":[
				0
			]
		}
	],
	"nodes":[
		{
			"mesh":0,
			"name":"CommonTree_Dead_5_Cube.001",
			"rotation":[
				0.7071068286895752,
				0,
				0,
				0.7071068286895752
			],
			"scale":[
				0.009999999776482582,
				0.009999999776482582,
				0.009999999776482582
			]
		}
	],
	"materials":[
		{
			"doubleSided":true,
			"name":"Wood.061",
			"pbrMetallicRoughness":{
				"baseColorFactor":[
					0.12234099954366684,
					0.05628800019621849,
					0.04760900139808655,
					1
				],
				"metallicFactor":0,
				"roughnessFactor":0.6900347471237183
			}
		}
	],
	"meshes":[
		{
			"name":"CommonTree_Dead_5_Cube.001",
			"primitives":[
				{
					"attributes":{
						"POSITION":0,
						"NORMAL":1
					},
					"indices":2,
					"material":0
				}
			]
		}
	],
	"accessors":[
		{
			"bufferView":0,
			"componentType":5126,
			"count":670,
			"max":[
				0.25204959511756897,
				0.872818112373352,
				0.040215447545051575
			],
			"min":[
				-0.5978856682777405,
				-0.336330384016037,
				-2.2436916828155518
			],
			"type":"VEC3"
		},
		{
			"bufferView":1,
			"componentType":5126,
			"count":670,
			"type":"VEC3"
		},
		{
			"bufferView":2,
			"componentType":5123,
			"count":726,
			"type":"SCALAR"
		}
	],
	"bufferViews":[
		{
			"buffer":0,
			"byteLength":8040,
			"byteOffset":0,
			"target":34962
		},
		{
			"buffer":0,
			"byteLength":8040,
			"byteOffset":8040,
			"target":34962
		},
		{
			"buffer":0,
			"byteLength":1452,
			"byteOffset":16080,
			"target":34963
		}
	],
	"buffers":[
		{
			"byteLength":17532,
			"uri":"tree-common-dead-5.bin"
		}
	]
}
