{
	"asset":{
		"generator":"Khronos glTF Blender I/O v4.0.44",
		"version":"2.0"
	},
	"scene":0,
	"scenes":[
		{
			"name":"Scene",
			"nodes":[
				0
			]
		}
	],
	"nodes":[
		{
			"mesh":0,
			"name":"CommonTree_4_Cube.002",
			"rotation":[
				0.7071068286895752,
				0,
				0,
				0.7071068286895752
			],
			"scale":[
				0.009999999776482582,
				0.009999999776482582,
				0.009999999776482582
			]
		}
	],
	"materials":[
		{
			"doubleSided":true,
			"name":"Wood.055",
			"pbrMetallicRoughness":{
				"baseColorFactor":[
					0.12234099954366684,
					0.05628800019621849,
					0.04760900139808655,
					1
				],
				"metallicFactor":0,
				"roughnessFactor":0.6900347471237183
			}
		},
		{
			"doubleSided":true,
			"name":"Green.058",
			"pbrMetallicRoughness":{
				"baseColorFactor":[
					0.06995400041341782,
					0.12185700237751007,
					0.047887999564409256,
					1
				],
				"metallicFactor":0,
				"roughnessFactor":0.6900347471237183
			}
		},
		{
			"doubleSided":true,
			"name":"DarkGreen.022",
			"pbrMetallicRoughness":{
				"baseColorFactor":[
					0.042527999728918076,
					0.07266899943351746,
					0.02957800030708313,
					1
				],
				"metallicFactor":0,
				"roughnessFactor":0.6900347471237183
			}
		}
	],
	"meshes":[
		{
			"name":"CommonTree_4_Cube.002",
			"primitives":[
				{
					"attributes":{
						"POSITION":0,
						"NORMAL":1
					},
					"indices":2,
					"material":0
				},
				{
					"attributes":{
						"POSITION":3,
						"NORMAL":4
					},
					"indices":5,
					"material":1
				},
				{
					"attributes":{
						"POSITION":6,
						"NORMAL":7
					},
					"indices":8,
					"material":2
				}
			]
		}
	],
	"accessors":[
		{
			"bufferView":0,
			"componentType":5126,
			"count":246,
			"max":[
				0.23184995353221893,
				0.24301020801067352,
				0.09857568889856339
			],
			"min":[
				-0.5978035926818848,
				-0.8363204598426819,
				-2.2633206844329834
			],
			"type":"VEC3"
		},
		{
			"bufferView":1,
			"componentType":5126,
			"count":246,
			"type":"VEC3"
		},
		{
			"bufferView":2,
			"componentType":5123,
			"count":264,
			"type":"SCALAR"
		},
		{
			"bufferView":3,
			"componentType":5126,
			"count":222,
			"max":[
				0.4596995711326599,
				0.6460131406784058,
				-1.7639051675796509
			],
			"min":[
				-1.0797131061553955,
				-1.133553147315979,
				-2.6834816932678223
			],
			"type":"VEC3"
		},
		{
			"bufferView":4,
			"componentType":5126,
			"count":222,
			"type":"VEC3"
		},
		{
			"bufferView":5,
			"componentType":5123,
			"count":240,
			"type":"SCALAR"
		},
		{
			"bufferView":6,
			"componentType":5126,
			"count":72,
			"max":[
				0.24051082134246826,
				0.5672500133514404,
				-1.4062232971191406
			],
			"min":[
				-0.4723798930644989,
				-0.1670169085264206,
				-1.820603847503662
			],
			"type":"VEC3"
		},
		{
			"bufferView":7,
			"componentType":5126,
			"count":72,
			"type":"VEC3"
		},
		{
			"bufferView":8,
			"componentType":5123,
			"count":78,
			"type":"SCALAR"
		}
	],
	"bufferViews":[
		{
			"buffer":0,
			"byteLength":2952,
			"byteOffset":0,
			"target":34962
		},
		{
			"buffer":0,
			"byteLength":2952,
			"byteOffset":2952,
			"target":34962
		},
		{
			"buffer":0,
			"byteLength":528,
			"byteOffset":5904,
			"target":34963
		},
		{
			"buffer":0,
			"byteLength":2664,
			"byteOffset":6432,
			"target":34962
		},
		{
			"buffer":0,
			"byteLength":2664,
			"byteOffset":9096,
			"target":34962
		},
		{
			"buffer":0,
			"byteLength":480,
			"byteOffset":11760,
			"target":34963
		},
		{
			"buffer":0,
			"byteLength":864,
			"byteOffset":12240,
			"target":34962
		},
		{
			"buffer":0,
			"byteLength":864,
			"byteOffset":13104,
			"target":34962
		},
		{
			"buffer":0,
			"byteLength":156,
			"byteOffset":13968,
			"target":34963
		}
	],
	"buffers":[
		{
			"byteLength":14124,
			"uri":"tree-common-4.bin"
		}
	]
}
