{
	"asset":{
		"generator":"Khronos glTF Blender I/O v4.0.44",
		"version":"2.0"
	},
	"scene":0,
	"scenes":[
		{
			"name":"Scene",
			"nodes":[
				0
			]
		}
	],
	"nodes":[
		{
			"mesh":0,
			"name":"CommonTree_Dead_2_Cube.001",
			"rotation":[
				0.7071068286895752,
				0,
				0,
				0.7071068286895752
			],
			"scale":[
				0.009999999776482582,
				0.009999999776482582,
				0.009999999776482582
			]
		}
	],
	"materials":[
		{
			"doubleSided":true,
			"name":"Wood.058",
			"pbrMetallicRoughness":{
				"baseColorFactor":[
					0.12234099954366684,
					0.05628800019621849,
					0.04760900139808655,
					1
				],
				"metallicFactor":0,
				"roughnessFactor":0.6900347471237183
			}
		}
	],
	"meshes":[
		{
			"name":"CommonTree_Dead_2_Cube.001",
			"primitives":[
				{
					"attributes":{
						"POSITION":0,
						"NORMAL":1
					},
					"indices":2,
					"material":0
				}
			]
		}
	],
	"accessors":[
		{
			"bufferView":0,
			"componentType":5126,
			"count":586,
			"max":[
				0.6311285495758057,
				1.2572261095046997,
				0.04726943001151085
			],
			"min":[
				-0.6898374557495117,
				-0.5956419706344604,
				-2.940046548843384
			],
			"type":"VEC3"
		},
		{
			"bufferView":1,
			"componentType":5126,
			"count":586,
			"type":"VEC3"
		},
		{
			"bufferView":2,
			"componentType":5123,
			"count":630,
			"type":"SCALAR"
		}
	],
	"bufferViews":[
		{
			"buffer":0,
			"byteLength":7032,
			"byteOffset":0,
			"target":34962
		},
		{
			"buffer":0,
			"byteLength":7032,
			"byteOffset":7032,
			"target":34962
		},
		{
			"buffer":0,
			"byteLength":1260,
			"byteOffset":14064,
			"target":34963
		}
	],
	"buffers":[
		{
			"byteLength":15324,
			"uri":"tree-common-dead-2.bin"
		}
	]
}
