{
	"asset":{
		"generator":"Khronos glTF Blender I/O v4.0.44",
		"version":"2.0"
	},
	"scene":0,
	"scenes":[
		{
			"name":"Scene",
			"nodes":[
				0
			]
		}
	],
	"nodes":[
		{
			"mesh":0,
			"name":"CommonTree_3_Cube.001",
			"rotation":[
				0.7071068286895752,
				0,
				0,
				0.7071068286895752
			],
			"scale":[
				0.009999999776482582,
				0.009999999776482582,
				0.009999999776482582
			]
		}
	],
	"materials":[
		{
			"doubleSided":true,
			"name":"Wood.054",
			"pbrMetallicRoughness":{
				"baseColorFactor":[
					0.12234099954366684,
					0.05628800019621849,
					0.04760900139808655,
					1
				],
				"metallicFactor":0,
				"roughnessFactor":0.6900347471237183
			}
		},
		{
			"doubleSided":true,
			"name":"Green.057",
			"pbrMetallicRoughness":{
				"baseColorFactor":[
					0.06995400041341782,
					0.12185700237751007,
					0.047887999564409256,
					1
				],
				"metallicFactor":0,
				"roughnessFactor":0.6900347471237183
			}
		},
		{
			"doubleSided":true,
			"name":"DarkGreen.021",
			"pbrMetallicRoughness":{
				"baseColorFactor":[
					0.042527999728918076,
					0.07266899943351746,
					0.02957800030708313,
					1
				],
				"metallicFactor":0,
				"roughnessFactor":0.6900347471237183
			}
		}
	],
	"meshes":[
		{
			"name":"CommonTree_3_Cube.001",
			"primitives":[
				{
					"attributes":{
						"POSITION":0,
						"NORMAL":1
					},
					"indices":2,
					"material":0
				},
				{
					"attributes":{
						"POSITION":3,
						"NORMAL":4
					},
					"indices":5,
					"material":1
				},
				{
					"attributes":{
						"POSITION":6,
						"NORMAL":7
					},
					"indices":8,
					"material":2
				}
			]
		}
	],
	"accessors":[
		{
			"bufferView":0,
			"componentType":5126,
			"count":250,
			"max":[
				0.11745953559875488,
				0.4815022349357605,
				0.06773016601800919
			],
			"min":[
				-0.5178091526031494,
				-0.33330777287483215,
				-2.918607234954834
			],
			"type":"VEC3"
		},
		{
			"bufferView":1,
			"componentType":5126,
			"count":250,
			"type":"VEC3"
		},
		{
			"bufferView":2,
			"componentType":5123,
			"count":270,
			"type":"SCALAR"
		},
		{
			"bufferView":3,
			"componentType":5126,
			"count":270,
			"max":[
				0.4029792547225952,
				0.7496880888938904,
				-1.462454080581665
			],
			"min":[
				-0.6665385961532593,
				-0.6302160620689392,
				-2.502563953399658
			],
			"type":"VEC3"
		},
		{
			"bufferView":4,
			"componentType":5126,
			"count":270,
			"type":"VEC3"
		},
		{
			"bufferView":5,
			"componentType":5123,
			"count":294,
			"type":"SCALAR"
		},
		{
			"bufferView":6,
			"componentType":5126,
			"count":222,
			"max":[
				0.5727677941322327,
				0.7251851558685303,
				-2.212834596633911
			],
			"min":[
				-0.6274595856666565,
				-0.774132490158081,
				-3.3316636085510254
			],
			"type":"VEC3"
		},
		{
			"bufferView":7,
			"componentType":5126,
			"count":222,
			"type":"VEC3"
		},
		{
			"bufferView":8,
			"componentType":5123,
			"count":246,
			"type":"SCALAR"
		}
	],
	"bufferViews":[
		{
			"buffer":0,
			"byteLength":3000,
			"byteOffset":0,
			"target":34962
		},
		{
			"buffer":0,
			"byteLength":3000,
			"byteOffset":3000,
			"target":34962
		},
		{
			"buffer":0,
			"byteLength":540,
			"byteOffset":6000,
			"target":34963
		},
		{
			"buffer":0,
			"byteLength":3240,
			"byteOffset":6540,
			"target":34962
		},
		{
			"buffer":0,
			"byteLength":3240,
			"byteOffset":9780,
			"target":34962
		},
		{
			"buffer":0,
			"byteLength":588,
			"byteOffset":13020,
			"target":34963
		},
		{
			"buffer":0,
			"byteLength":2664,
			"byteOffset":13608,
			"target":34962
		},
		{
			"buffer":0,
			"byteLength":2664,
			"byteOffset":16272,
			"target":34962
		},
		{
			"buffer":0,
			"byteLength":492,
			"byteOffset":18936,
			"target":34963
		}
	],
	"buffers":[
		{
			"byteLength":19428,
			"uri":"tree-common-3.bin"
		}
	]
}
