{
	"asset":{
		"generator":"Khronos glTF Blender I/O v4.0.44",
		"version":"2.0"
	},
	"scene":0,
	"scenes":[
		{
			"name":"Scene",
			"nodes":[
				0
			]
		}
	],
	"nodes":[
		{
			"mesh":0,
			"name":"CommonTree_1_Cube.049",
			"rotation":[
				0.7071068286895752,
				0,
				0,
				0.7071068286895752
			],
			"scale":[
				0.009999999776482582,
				0.009999999776482582,
				0.009999999776482582
			]
		}
	],
	"materials":[
		{
			"doubleSided":true,
			"name":"Wood",
			"pbrMetallicRoughness":{
				"baseColorFactor":[
					0.12234099954366684,
					0.05628800019621849,
					0.04760900139808655,
					1
				],
				"metallicFactor":0,
				"roughnessFactor":0.6900347471237183
			}
		},
		{
			"doubleSided":true,
			"name":"Green.016",
			"pbrMetallicRoughness":{
				"baseColorFactor":[
					0.06995400041341782,
					0.12185700237751007,
					0.047887999564409256,
					1
				],
				"metallicFactor":0,
				"roughnessFactor":0.6900347471237183
			}
		}
	],
	"meshes":[
		{
			"name":"CommonTree_1_Cube.049",
			"primitives":[
				{
					"attributes":{
						"POSITION":0,
						"NORMAL":1
					},
					"indices":2,
					"material":0
				},
				{
					"attributes":{
						"POSITION":3,
						"NORMAL":4
					},
					"indices":5,
					"material":1
				}
			]
		}
	],
	"accessors":[
		{
			"bufferView":0,
			"componentType":5126,
			"count":644,
			"max":[
				0.4958527684211731,
				1.157941460609436,
				0.034830495715141296
			],
			"min":[
				-0.5506648421287537,
				-0.9625890851020813,
				-2.1897950172424316
			],
			"type":"VEC3"
		},
		{
			"bufferView":1,
			"componentType":5126,
			"count":644,
			"type":"VEC3"
		},
		{
			"bufferView":2,
			"componentType":5123,
			"count":690,
			"type":"SCALAR"
		},
		{
			"bufferView":3,
			"componentType":5126,
			"count":552,
			"max":[
				0.9695295095443726,
				1.5828050374984741,
				-1.4103333950042725
			],
			"min":[
				-0.9161791205406189,
				-1.158345103263855,
				-2.4402801990509033
			],
			"type":"VEC3"
		},
		{
			"bufferView":4,
			"componentType":5126,
			"count":552,
			"type":"VEC3"
		},
		{
			"bufferView":5,
			"componentType":5123,
			"count":612,
			"type":"SCALAR"
		}
	],
	"bufferViews":[
		{
			"buffer":0,
			"byteLength":7728,
			"byteOffset":0,
			"target":34962
		},
		{
			"buffer":0,
			"byteLength":7728,
			"byteOffset":7728,
			"target":34962
		},
		{
			"buffer":0,
			"byteLength":1380,
			"byteOffset":15456,
			"target":34963
		},
		{
			"buffer":0,
			"byteLength":6624,
			"byteOffset":16836,
			"target":34962
		},
		{
			"buffer":0,
			"byteLength":6624,
			"byteOffset":23460,
			"target":34962
		},
		{
			"buffer":0,
			"byteLength":1224,
			"byteOffset":30084,
			"target":34963
		}
	],
	"buffers":[
		{
			"byteLength":31308,
			"uri":"tree-common-1.bin"
		}
	]
}
