{
	"asset":{
		"generator":"Khronos glTF Blender I/O v4.0.44",
		"version":"2.0"
	},
	"scene":0,
	"scenes":[
		{
			"name":"Scene",
			"nodes":[
				0
			]
		}
	],
	"nodes":[
		{
			"mesh":0,
			"name":"CommonTree_Dead_1_Cube.001",
			"rotation":[
				0.7071068286895752,
				0,
				0,
				0.7071068286895752
			],
			"scale":[
				0.009999999776482582,
				0.009999999776482582,
				0.009999999776482582
			]
		}
	],
	"materials":[
		{
			"doubleSided":true,
			"name":"Wood.057",
			"pbrMetallicRoughness":{
				"baseColorFactor":[
					0.12234099954366684,
					0.05628800019621849,
					0.04760900139808655,
					1
				],
				"metallicFactor":0,
				"roughnessFactor":0.6900347471237183
			}
		}
	],
	"meshes":[
		{
			"name":"CommonTree_Dead_1_Cube.001",
			"primitives":[
				{
					"attributes":{
						"POSITION":0,
						"NORMAL":1
					},
					"indices":2,
					"material":0
				}
			]
		}
	],
	"accessors":[
		{
			"bufferView":0,
			"componentType":5126,
			"count":758,
			"max":[
				0.49907416105270386,
				1.157941460609436,
				0.03647853806614876
			],
			"min":[
				-0.5506648421287537,
				-0.9625890851020813,
				-2.1897950172424316
			],
			"type":"VEC3"
		},
		{
			"bufferView":1,
			"componentType":5126,
			"count":758,
			"type":"VEC3"
		},
		{
			"bufferView":2,
			"componentType":5123,
			"count":822,
			"type":"SCALAR"
		}
	],
	"bufferViews":[
		{
			"buffer":0,
			"byteLength":9096,
			"byteOffset":0,
			"target":34962
		},
		{
			"buffer":0,
			"byteLength":9096,
			"byteOffset":9096,
			"target":34962
		},
		{
			"buffer":0,
			"byteLength":1644,
			"byteOffset":18192,
			"target":34963
		}
	],
	"buffers":[
		{
			"byteLength":19836,
			"uri":"tree-common-dead-1.bin"
		}
	]
}
