{
	"asset":{
		"generator":"Khronos glTF Blender I/O v4.0.44",
		"version":"2.0"
	},
	"scene":0,
	"scenes":[
		{
			"name":"Scene",
			"nodes":[
				0
			]
		}
	],
	"nodes":[
		{
			"mesh":0,
			"name":"Willow_1_Cube.010",
			"rotation":[
				0.7071068286895752,
				0,
				0,
				0.7071068286895752
			],
			"scale":[
				0.009999999776482582,
				0.009999999776482582,
				0.009999999776482582
			]
		}
	],
	"materials":[
		{
			"doubleSided":true,
			"name":"Wood.034",
			"pbrMetallicRoughness":{
				"baseColorFactor":[
					0.12234099954366684,
					0.05628800019621849,
					0.04760900139808655,
					1
				],
				"metallicFactor":0,
				"roughnessFactor":0.6900347471237183
			}
		},
		{
			"doubleSided":true,
			"name":"DarkGreen.015",
			"pbrMetallicRoughness":{
				"baseColorFactor":[
					0.042527999728918076,
					0.07266899943351746,
					0.02957800030708313,
					1
				],
				"metallicFactor":0,
				"roughnessFactor":0.6900347471237183
			}
		}
	],
	"meshes":[
		{
			"name":"Willow_1_Cube.010",
			"primitives":[
				{
					"attributes":{
						"POSITION":0,
						"NORMAL":1
					},
					"indices":2,
					"material":0
				},
				{
					"attributes":{
						"POSITION":3,
						"NORMAL":4
					},
					"indices":5,
					"material":1
				}
			]
		}
	],
	"accessors":[
		{
			"bufferView":0,
			"componentType":5126,
			"count":360,
			"max":[
				0.27287304401397705,
				0.1440291553735733,
				0.013174714520573616
			],
			"min":[
				-0.23475897312164307,
				-1.6383495330810547,
				-2.6754493713378906
			],
			"type":"VEC3"
		},
		{
			"bufferView":1,
			"componentType":5126,
			"count":360,
			"type":"VEC3"
		},
		{
			"bufferView":2,
			"componentType":5123,
			"count":396,
			"type":"SCALAR"
		},
		{
			"bufferView":3,
			"componentType":5126,
			"count":694,
			"max":[
				0.9478790163993835,
				0.6831704378128052,
				-0.24009624123573303
			],
			"min":[
				-0.48515698313713074,
				-1.8656179904937744,
				-2.7936410903930664
			],
			"type":"VEC3"
		},
		{
			"bufferView":4,
			"componentType":5126,
			"count":694,
			"type":"VEC3"
		},
		{
			"bufferView":5,
			"componentType":5123,
			"count":762,
			"type":"SCALAR"
		}
	],
	"bufferViews":[
		{
			"buffer":0,
			"byteLength":4320,
			"byteOffset":0,
			"target":34962
		},
		{
			"buffer":0,
			"byteLength":4320,
			"byteOffset":4320,
			"target":34962
		},
		{
			"buffer":0,
			"byteLength":792,
			"byteOffset":8640,
			"target":34963
		},
		{
			"buffer":0,
			"byteLength":8328,
			"byteOffset":9432,
			"target":34962
		},
		{
			"buffer":0,
			"byteLength":8328,
			"byteOffset":17760,
			"target":34962
		},
		{
			"buffer":0,
			"byteLength":1524,
			"byteOffset":26088,
			"target":34963
		}
	],
	"buffers":[
		{
			"byteLength":27612,
			"uri":"willow-tree-1.bin"
		}
	]
}
