{
	"asset":{
		"generator":"Khronos glTF Blender I/O v4.0.44",
		"version":"2.0"
	},
	"scene":0,
	"scenes":[
		{
			"name":"Scene",
			"nodes":[
				0
			]
		}
	],
	"nodes":[
		{
			"mesh":0,
			"name":"Willow_2_Cube.011",
			"rotation":[
				0.7071068286895752,
				0,
				0,
				0.7071068286895752
			],
			"scale":[
				0.009999999776482582,
				0.009999999776482582,
				0.009999999776482582
			]
		}
	],
	"materials":[
		{
			"doubleSided":true,
			"name":"Wood.035",
			"pbrMetallicRoughness":{
				"baseColorFactor":[
					0.12234099954366684,
					0.05628800019621849,
					0.04760900139808655,
					1
				],
				"metallicFactor":0,
				"roughnessFactor":0.6900347471237183
			}
		},
		{
			"doubleSided":true,
			"name":"DarkGreen.016",
			"pbrMetallicRoughness":{
				"baseColorFactor":[
					0.042527999728918076,
					0.07266899943351746,
					0.02957800030708313,
					1
				],
				"metallicFactor":0,
				"roughnessFactor":0.6900347471237183
			}
		}
	],
	"meshes":[
		{
			"name":"Willow_2_Cube.011",
			"primitives":[
				{
					"attributes":{
						"POSITION":0,
						"NORMAL":1
					},
					"indices":2,
					"material":0
				},
				{
					"attributes":{
						"POSITION":3,
						"NORMAL":4
					},
					"indices":5,
					"material":1
				}
			]
		}
	],
	"accessors":[
		{
			"bufferView":0,
			"componentType":5126,
			"count":390,
			"max":[
				0.6418132781982422,
				0.1622699350118637,
				0.05089472234249115
			],
			"min":[
				-0.53570955991745,
				-2.2642054557800293,
				-2.8020448684692383
			],
			"type":"VEC3"
		},
		{
			"bufferView":1,
			"componentType":5126,
			"count":390,
			"type":"VEC3"
		},
		{
			"bufferView":2,
			"componentType":5123,
			"count":402,
			"type":"SCALAR"
		},
		{
			"bufferView":3,
			"componentType":5126,
			"count":574,
			"max":[
				1.0833481550216675,
				0.30883774161338806,
				-0.42953357100486755
			],
			"min":[
				-0.8595483899116516,
				-2.790677785873413,
				-3.277540922164917
			],
			"type":"VEC3"
		},
		{
			"bufferView":4,
			"componentType":5126,
			"count":574,
			"type":"VEC3"
		},
		{
			"bufferView":5,
			"componentType":5123,
			"count":612,
			"type":"SCALAR"
		}
	],
	"bufferViews":[
		{
			"buffer":0,
			"byteLength":4680,
			"byteOffset":0,
			"target":34962
		},
		{
			"buffer":0,
			"byteLength":4680,
			"byteOffset":4680,
			"target":34962
		},
		{
			"buffer":0,
			"byteLength":804,
			"byteOffset":9360,
			"target":34963
		},
		{
			"buffer":0,
			"byteLength":6888,
			"byteOffset":10164,
			"target":34962
		},
		{
			"buffer":0,
			"byteLength":6888,
			"byteOffset":17052,
			"target":34962
		},
		{
			"buffer":0,
			"byteLength":1224,
			"byteOffset":23940,
			"target":34963
		}
	],
	"buffers":[
		{
			"byteLength":25164,
			"uri":"willow-tree-2.bin"
		}
	]
}
