{
	"asset":{
		"generator":"Khronos glTF Blender I/O v4.0.44",
		"version":"2.0"
	},
	"scene":0,
	"scenes":[
		{
			"name":"Scene",
			"nodes":[
				0
			]
		}
	],
	"nodes":[
		{
			"mesh":0,
			"name":"Willow_4_Cube.043",
			"rotation":[
				0.7071068286895752,
				0,
				0,
				0.7071068286895752
			],
			"scale":[
				0.009999999776482582,
				0.009999999776482582,
				0.009999999776482582
			]
		}
	],
	"materials":[
		{
			"doubleSided":true,
			"name":"Wood.037",
			"pbrMetallicRoughness":{
				"baseColorFactor":[
					0.12234099954366684,
					0.05628800019621849,
					0.04760900139808655,
					1
				],
				"metallicFactor":0,
				"roughnessFactor":0.6900347471237183
			}
		},
		{
			"doubleSided":true,
			"name":"DarkGreen.018",
			"pbrMetallicRoughness":{
				"baseColorFactor":[
					0.042527999728918076,
					0.07266899943351746,
					0.02957800030708313,
					1
				],
				"metallicFactor":0,
				"roughnessFactor":0.6900347471237183
			}
		}
	],
	"meshes":[
		{
			"name":"Willow_4_Cube.043",
			"primitives":[
				{
					"attributes":{
						"POSITION":0,
						"NORMAL":1
					},
					"indices":2,
					"material":0
				},
				{
					"attributes":{
						"POSITION":3,
						"NORMAL":4
					},
					"indices":5,
					"material":1
				}
			]
		}
	],
	"accessors":[
		{
			"bufferView":0,
			"componentType":5126,
			"count":204,
			"max":[
				0.4750683903694153,
				0.6991541385650635,
				0.02084803767502308
			],
			"min":[
				-0.5263813138008118,
				-1.8648360967636108,
				-2.7757797241210938
			],
			"type":"VEC3"
		},
		{
			"bufferView":1,
			"componentType":5126,
			"count":204,
			"type":"VEC3"
		},
		{
			"bufferView":2,
			"componentType":5123,
			"count":210,
			"type":"SCALAR"
		},
		{
			"bufferView":3,
			"componentType":5126,
			"count":432,
			"max":[
				1.2245548963546753,
				0.9982893466949463,
				-0.6410765647888184
			],
			"min":[
				-0.935680091381073,
				-2.0700793266296387,
				-3.2975008487701416
			],
			"type":"VEC3"
		},
		{
			"bufferView":4,
			"componentType":5126,
			"count":432,
			"type":"VEC3"
		},
		{
			"bufferView":5,
			"componentType":5123,
			"count":462,
			"type":"SCALAR"
		}
	],
	"bufferViews":[
		{
			"buffer":0,
			"byteLength":2448,
			"byteOffset":0,
			"target":34962
		},
		{
			"buffer":0,
			"byteLength":2448,
			"byteOffset":2448,
			"target":34962
		},
		{
			"buffer":0,
			"byteLength":420,
			"byteOffset":4896,
			"target":34963
		},
		{
			"buffer":0,
			"byteLength":5184,
			"byteOffset":5316,
			"target":34962
		},
		{
			"buffer":0,
			"byteLength":5184,
			"byteOffset":10500,
			"target":34962
		},
		{
			"buffer":0,
			"byteLength":924,
			"byteOffset":15684,
			"target":34963
		}
	],
	"buffers":[
		{
			"byteLength":16608,
			"uri":"willow-tree-4.bin"
		}
	]
}
