{
	"asset":{
		"generator":"Khronos glTF Blender I/O v4.0.44",
		"version":"2.0"
	},
	"scene":0,
	"scenes":[
		{
			"name":"Scene",
			"nodes":[
				0
			]
		}
	],
	"nodes":[
		{
			"mesh":0,
			"name":"Willow_5_Cube.046",
			"rotation":[
				0.7071068286895752,
				0,
				0,
				0.7071068286895752
			],
			"scale":[
				0.009999999776482582,
				0.009999999776482582,
				0.009999999776482582
			]
		}
	],
	"materials":[
		{
			"doubleSided":true,
			"name":"Wood.038",
			"pbrMetallicRoughness":{
				"baseColorFactor":[
					0.12234099954366684,
					0.05628800019621849,
					0.04760900139808655,
					1
				],
				"metallicFactor":0,
				"roughnessFactor":0.6900347471237183
			}
		},
		{
			"doubleSided":true,
			"name":"DarkGreen.019",
			"pbrMetallicRoughness":{
				"baseColorFactor":[
					0.042527999728918076,
					0.07266899943351746,
					0.02957800030708313,
					1
				],
				"metallicFactor":0,
				"roughnessFactor":0.6900347471237183
			}
		}
	],
	"meshes":[
		{
			"name":"Willow_5_Cube.046",
			"primitives":[
				{
					"attributes":{
						"POSITION":0,
						"NORMAL":1
					},
					"indices":2,
					"material":0
				},
				{
					"attributes":{
						"POSITION":3,
						"NORMAL":4
					},
					"indices":5,
					"material":1
				}
			]
		}
	],
	"accessors":[
		{
			"bufferView":0,
			"componentType":5126,
			"count":180,
			"max":[
				0.34240245819091797,
				1.216516137123108,
				0.002138572745025158
			],
			"min":[
				-0.21786926686763763,
				-0.6983799934387207,
				-2.0232605934143066
			],
			"type":"VEC3"
		},
		{
			"bufferView":1,
			"componentType":5126,
			"count":180,
			"type":"VEC3"
		},
		{
			"bufferView":2,
			"componentType":5123,
			"count":198,
			"type":"SCALAR"
		},
		{
			"bufferView":3,
			"componentType":5126,
			"count":632,
			"max":[
				0.5745642185211182,
				1.4993741512298584,
				-0.6455772519111633
			],
			"min":[
				-0.42406949400901794,
				-0.9896381497383118,
				-2.404224157333374
			],
			"type":"VEC3"
		},
		{
			"bufferView":4,
			"componentType":5126,
			"count":632,
			"type":"VEC3"
		},
		{
			"bufferView":5,
			"componentType":5123,
			"count":666,
			"type":"SCALAR"
		}
	],
	"bufferViews":[
		{
			"buffer":0,
			"byteLength":2160,
			"byteOffset":0,
			"target":34962
		},
		{
			"buffer":0,
			"byteLength":2160,
			"byteOffset":2160,
			"target":34962
		},
		{
			"buffer":0,
			"byteLength":396,
			"byteOffset":4320,
			"target":34963
		},
		{
			"buffer":0,
			"byteLength":7584,
			"byteOffset":4716,
			"target":34962
		},
		{
			"buffer":0,
			"byteLength":7584,
			"byteOffset":12300,
			"target":34962
		},
		{
			"buffer":0,
			"byteLength":1332,
			"byteOffset":19884,
			"target":34963
		}
	],
	"buffers":[
		{
			"byteLength":21216,
			"uri":"willow-tree-5.bin"
		}
	]
}
