{
	"asset":{
		"generator":"Khronos glTF Blender I/O v4.0.44",
		"version":"2.0"
	},
	"scene":0,
	"scenes":[
		{
			"name":"Scene",
			"nodes":[
				0
			]
		}
	],
	"nodes":[
		{
			"mesh":0,
			"name":"Willow_3_Cube.012",
			"rotation":[
				0.7071068286895752,
				0,
				0,
				0.7071068286895752
			],
			"scale":[
				0.009999999776482582,
				0.009999999776482582,
				0.009999999776482582
			]
		}
	],
	"materials":[
		{
			"doubleSided":true,
			"name":"Wood.036",
			"pbrMetallicRoughness":{
				"baseColorFactor":[
					0.12234099954366684,
					0.05628800019621849,
					0.04760900139808655,
					1
				],
				"metallicFactor":0,
				"roughnessFactor":0.6900347471237183
			}
		},
		{
			"doubleSided":true,
			"name":"DarkGreen.017",
			"pbrMetallicRoughness":{
				"baseColorFactor":[
					0.042527999728918076,
					0.07266899943351746,
					0.02957800030708313,
					1
				],
				"metallicFactor":0,
				"roughnessFactor":0.6900347471237183
			}
		}
	],
	"meshes":[
		{
			"name":"Willow_3_Cube.012",
			"primitives":[
				{
					"attributes":{
						"POSITION":0,
						"NORMAL":1
					},
					"indices":2,
					"material":0
				},
				{
					"attributes":{
						"POSITION":3,
						"NORMAL":4
					},
					"indices":5,
					"material":1
				}
			]
		}
	],
	"accessors":[
		{
			"bufferView":0,
			"componentType":5126,
			"count":132,
			"max":[
				0.10766792297363281,
				0.1622699350118637,
				0.008848721161484718
			],
			"min":[
				-0.14383944869041443,
				-1.4258816242218018,
				-1.9027336835861206
			],
			"type":"VEC3"
		},
		{
			"bufferView":1,
			"componentType":5126,
			"count":132,
			"type":"VEC3"
		},
		{
			"bufferView":2,
			"componentType":5123,
			"count":138,
			"type":"SCALAR"
		},
		{
			"bufferView":3,
			"componentType":5126,
			"count":346,
			"max":[
				0.6782693266868591,
				0.16655340790748596,
				-0.3900848627090454
			],
			"min":[
				-0.5797449350357056,
				-1.8192192316055298,
				-2.3271420001983643
			],
			"type":"VEC3"
		},
		{
			"bufferView":4,
			"componentType":5126,
			"count":346,
			"type":"VEC3"
		},
		{
			"bufferView":5,
			"componentType":5123,
			"count":372,
			"type":"SCALAR"
		}
	],
	"bufferViews":[
		{
			"buffer":0,
			"byteLength":1584,
			"byteOffset":0,
			"target":34962
		},
		{
			"buffer":0,
			"byteLength":1584,
			"byteOffset":1584,
			"target":34962
		},
		{
			"buffer":0,
			"byteLength":276,
			"byteOffset":3168,
			"target":34963
		},
		{
			"buffer":0,
			"byteLength":4152,
			"byteOffset":3444,
			"target":34962
		},
		{
			"buffer":0,
			"byteLength":4152,
			"byteOffset":7596,
			"target":34962
		},
		{
			"buffer":0,
			"byteLength":744,
			"byteOffset":11748,
			"target":34963
		}
	],
	"buffers":[
		{
			"byteLength":12492,
			"uri":"willow-tree-3.bin"
		}
	]
}
