{
    "asset" : {
        "generator" : "Khronos glTF Blender I/O v1.5.17",
        "version" : "2.0"
    },
    "scene" : 0,
    "scenes" : [
        {
            "name" : "Scene",
            "nodes" : [
                0
            ]
        }
    ],
    "nodes" : [
        {
            "mesh" : 0,
            "name" : "Tree_1",
            "rotation" : [
                0.7071068286895752,
                0,
                0,
                0.7071067094802856
            ],
            "scale" : [
                0.4312080144882202,
                0.4312080144882202,
                0.4312080144882202
            ]
        }
    ],
    "materials" : [
        {
            "doubleSided" : true,
            "name" : "Trunk_1",
            "pbrMetallicRoughness" : {
                "baseColorFactor" : [
                    0.4235294461250305,
                    0.2705882489681244,
                    0.07058823853731155,
                    1
                ],
                "metallicFactor" : 0,
                "roughnessFactor" : 0.5
            }
        },
        {
            "doubleSided" : true,
            "name" : "Treetop_1",
            "pbrMetallicRoughness" : {
                "baseColorFactor" : [
                    0.2196078598499298,
                    0.9921569228172302,
                    0,
                    1
                ],
                "metallicFactor" : 0,
                "roughnessFactor" : 0.5
            }
        }
    ],
    "meshes" : [
        {
            "name" : "Tree_1",
            "primitives" : [
                {
                    "attributes" : {
                        "POSITION" : 0,
                        "NORMAL" : 1,
                        "TEXCOORD_0" : 2
                    },
                    "indices" : 3,
                    "material" : 0
                },
                {
                    "attributes" : {
                        "POSITION" : 4,
                        "NORMAL" : 5,
                        "TEXCOORD_0" : 6
                    },
                    "indices" : 7,
                    "material" : 1
                }
            ]
        }
    ],
    "accessors" : [
        {
            "bufferView" : 0,
            "componentType" : 5126,
            "count" : 108,
            "max" : [
                2.8572041988372803,
                1.6433954238891602,
                0.3037038743495941
            ],
            "min" : [
                -11.352954864501953,
                -1.6940865516662598,
                -24.481128692626953
            ],
            "type" : "VEC3"
        },
        {
            "bufferView" : 1,
            "componentType" : 5126,
            "count" : 108,
            "type" : "VEC3"
        },
        {
            "bufferView" : 2,
            "componentType" : 5126,
            "count" : 108,
            "type" : "VEC2"
        },
        {
            "bufferView" : 3,
            "componentType" : 5123,
            "count" : 162,
            "type" : "SCALAR"
        },
        {
            "bufferView" : 4,
            "componentType" : 5126,
            "count" : 480,
            "max" : [
                9.508321762084961,
                9.400357246398926,
                -18.023845672607422
            ],
            "min" : [
                -17.111751556396484,
                -7.372585296630859,
                -31.332679748535156
            ],
            "type" : "VEC3"
        },
        {
            "bufferView" : 5,
            "componentType" : 5126,
            "count" : 480,
            "type" : "VEC3"
        },
        {
            "bufferView" : 6,
            "componentType" : 5126,
            "count" : 480,
            "type" : "VEC2"
        },
        {
            "bufferView" : 7,
            "componentType" : 5123,
            "count" : 480,
            "type" : "SCALAR"
        }
    ],
    "bufferViews" : [
        {
            "buffer" : 0,
            "byteLength" : 1296,
            "byteOffset" : 0
        },
        {
            "buffer" : 0,
            "byteLength" : 1296,
            "byteOffset" : 1296
        },
        {
            "buffer" : 0,
            "byteLength" : 864,
            "byteOffset" : 2592
        },
        {
            "buffer" : 0,
            "byteLength" : 324,
            "byteOffset" : 3456
        },
        {
            "buffer" : 0,
            "byteLength" : 5760,
            "byteOffset" : 3780
        },
        {
            "buffer" : 0,
            "byteLength" : 5760,
            "byteOffset" : 9540
        },
        {
            "buffer" : 0,
            "byteLength" : 3840,
            "byteOffset" : 15300
        },
        {
            "buffer" : 0,
            "byteLength" : 960,
            "byteOffset" : 19140
        }
    ],
    "buffers" : [
        {
            "byteLength" : 20100,
            "uri" : "data:application/octet-stream;base64,"
        }
    ]
}
