{
	"asset":{
		"generator":"Khronos glTF Blender I/O v4.0.44",
		"version":"2.0"
	},
	"scene":0,
	"scenes":[
		{
			"name":"Scene",
			"nodes":[
				0
			]
		}
	],
	"nodes":[
		{
			"mesh":0,
			"name":"Landscape.001",
			"translation":[
				1,
				0.06510648131370544,
				1
			]
		}
	],
	"materials":[
		{
			"doubleSided":true,
			"name":"Material.004",
			"pbrMetallicRoughness":{
				"baseColorTexture":{
					"index":0
				},
				"metallicFactor":0
			}
		}
	],
	"meshes":[
		{
			"name":"Plane.003",
			"primitives":[
				{
					"attributes":{
						"POSITION":0,
						"NORMAL":1,
						"TEXCOORD_0":2
					},
					"indices":3,
					"material":0
				}
			]
		}
	],
	"textures":[
		{
			"sampler":0,
			"source":0
		}
	],
	"images":[
		{
			"mimeType":"image/png",
			"name":"Landscape_Tx_4k",
			"uri":"Landscape_Tx_4k.png"
		}
	],
	"accessors":[
		{
			"bufferView":0,
			"componentType":5126,
			"count":20975,
			"max":[
				1.0035759210586548,
				0.1812439262866974,
				1.0290025472640991
			],
			"min":[
				-1.0115262269973755,
				-0.059252090752124786,
				-1.0192205905914307
			],
			"type":"VEC3"
		},
		{
			"bufferView":1,
			"componentType":5126,
			"count":20975,
			"type":"VEC3"
		},
		{
			"bufferView":2,
			"componentType":5126,
			"count":20975,
			"type":"VEC2"
		},
		{
			"bufferView":3,
			"componentType":5123,
			"count":20985,
			"type":"SCALAR"
		}
	],
	"bufferViews":[
		{
			"buffer":0,
			"byteLength":251700,
			"byteOffset":0,
			"target":34962
		},
		{
			"buffer":0,
			"byteLength":251700,
			"byteOffset":251700,
			"target":34962
		},
		{
			"buffer":0,
			"byteLength":167800,
			"byteOffset":503400,
			"target":34962
		},
		{
			"buffer":0,
			"byteLength":41970,
			"byteOffset":671200,
			"target":34963
		}
	],
	"samplers":[
		{
			"magFilter":9729,
			"minFilter":9987
		}
	],
	"buffers":[
		{
			"byteLength":713172,
			"uri":"model.bin"
		}
	]
}
